<?xml version="1.0" encoding="UTF-8" standalone="no"?>
<svg
   version="1.1"
   id="Layer_1"
   x="0px"
   y="0px"
   width="805.45648"
   viewBox="0 0 805.45648 693.01758"
   enable-background="new 0 0 1024 1024"
   xml:space="preserve"
   sodipodi:docname="logo.svg"
   height="693.01758"
   inkscape:version="1.4.2 (2aeb623e1d, 2025-05-12)"
   xmlns:inkscape="http://www.inkscape.org/namespaces/inkscape"
   xmlns:sodipodi="http://sodipodi.sourceforge.net/DTD/sodipodi-0.dtd"
   xmlns="http://www.w3.org/2000/svg"
   xmlns:svg="http://www.w3.org/2000/svg"><defs
   id="defs15" /><sodipodi:namedview
   id="namedview15"
   pagecolor="#ffffff"
   bordercolor="#000000"
   borderopacity="0.25"
   inkscape:showpageshadow="2"
   inkscape:pageopacity="0.0"
   inkscape:pagecheckerboard="0"
   inkscape:deskcolor="#d1d1d1"
   inkscape:zoom="0.82910156"
   inkscape:cx="402.8457"
   inkscape:cy="396.21201"
   inkscape:window-width="1920"
   inkscape:window-height="1120"
   inkscape:window-x="0"
   inkscape:window-y="0"
   inkscape:window-maximized="1"
   inkscape:current-layer="Layer_1" />










<g
   id="g15"
   transform="translate(-109.04689,-116.21059)"><path
     fill="#000000"
     opacity="1"
     stroke="none"
     d="m 227.64822,761.99988 c -0.001,-16.64282 0.10282,-32.78681 -0.0775,-48.92761 -0.0452,-4.04676 1.13448,-5.66913 5.34941,-5.47669 14.10105,0.64362 28.29731,-1.25323 42.32428,1.13178 19.34232,3.28881 28.19639,23.34143 17.49415,38.96551 -2.04621,2.98724 -5.30143,4.48541 -7.67417,7.05225 0.42359,1.62396 1.9805,1.68512 3.06436,2.29242 16.64554,9.32672 17.65693,32.13574 1.97806,43.15283 -7.26639,5.10596 -15.58136,6.67767 -24.07043,7.00232 -11.13385,0.42584 -22.2986,-0.0263 -33.44522,0.17224 -4.12534,0.0735 -5.02892,-1.76672 -4.99213,-5.42389 0.13228,-13.14587 0.0504,-26.29388 0.0492,-39.94116 m 29.91861,27.6654 c 4.12909,-0.21435 8.30365,0.51612 12.37448,-0.89715 5.49039,-1.90631 7.79133,-5.34088 7.7053,-11.88214 -0.0776,-5.90131 -2.32697,-8.97846 -7.82227,-10.61634 -5.87118,-1.75 -11.89368,-0.7846 -17.85175,-0.90393 -2.23439,-0.0449 -2.62033,1.60272 -2.61514,3.44354 0.0127,4.49409 -0.007,8.98829 -0.007,13.48243 6e-4,7.3518 0.003,7.3518 8.21652,7.37359 m 15.99988,-58.53412 c -2.89197,-5.10937 -7.81863,-5.75537 -12.93628,-5.74023 -13.15782,0.0388 -11.07892,-1.50385 -11.27864,10.93231 -0.0107,0.66565 -0.0175,1.33191 4.6e-4,1.99719 0.31052,11.47327 -2.61221,10.67988 11.31239,10.19056 11.06568,-0.3888 15.72983,-6.76014 12.90207,-17.37983 z"
     id="path2" /><path
     fill="#000000"
     opacity="1"
     stroke="none"
     d="m 530.91846,807.32263 c -9.9842,-0.002 -19.48136,-0.10504 -28.9747,0.0411 -3.66803,0.0563 -5.3808,-0.87891 -5.36048,-5.0232 0.14725,-29.98559 0.087,-59.9721 0.0854,-89.95837 -1.5e-4,-2.43884 -0.0467,-4.81134 3.47025,-4.70435 14.29055,0.435 28.63485,-1.18377 42.87643,0.92469 10.87842,1.61059 19.31134,6.74255 22.099,18.02875 2.87213,11.62786 -1.23999,20.8692 -11.11841,27.57446 -0.26111,0.17724 -0.49078,0.40088 -0.88513,0.72668 0.48822,0.36567 0.80786,0.71918 1.20575,0.88636 10.10956,4.24737 15.6394,11.87915 15.55328,22.79998 -0.0862,10.91339 -5.58795,18.93561 -15.21582,24.00812 -7.26379,3.82703 -15.24914,4.35742 -23.73553,4.6958 m -12.11835,-18.75018 c 6.10998,2.20025 12.43109,1.52923 18.51086,0.49389 6.86237,-1.16851 9.9173,-6.13623 9.30597,-13.11498 -0.54101,-6.17481 -4.9367,-10.23621 -11.72412,-10.555 -4.14001,-0.19446 -8.29779,0.0152 -12.4425,-0.11621 -2.94873,-0.0935 -4.21247,1.05866 -4.13172,4.08753 0.16352,6.13439 0.1189,12.27429 0.48151,19.20477 m 15.67725,-62.75781 c -1.98279,-0.14868 -3.96643,-0.43586 -5.94825,-0.42322 -11.80194,0.0753 -10.09338,-1.31781 -10.16125,9.97546 -0.0898,14.94019 0.89258,15.65723 15.74237,12.29431 5.84051,-1.32269 8.9953,-4.92254 9.39618,-10.72174 0.36554,-5.28772 -2.42389,-8.94903 -9.02905,-11.12481 z"
     id="path3" /><path
     fill="#000000"
     opacity="1"
     stroke="none"
     d="m 664.30029,808.19342 c -13.60376,-2.91302 -24.01629,-9.12604 -28.04107,-22.96387 -0.92591,-3.18322 -1.62806,-6.42462 -1.62134,-9.80438 0.0411,-20.65906 0.14801,-41.31964 -0.0768,-61.97638 -0.0508,-4.66339 1.48962,-6.26037 5.9992,-5.86017 3.30597,0.29334 6.68756,0.33197 9.98456,-0.008 4.99036,-0.51538 6.67987,1.2511 6.6015,6.3963 -0.2818,18.48895 -0.14435,36.9848 -0.10559,55.47785 0.008,3.8142 0.0319,7.61358 1.25415,11.35479 1.66406,5.09357 5.06622,8.58087 10.11994,9.34455 13.36712,2.01989 23.9259,0.57 24.18707,-18.10633 0.27258,-19.48919 0.18378,-38.98602 -0.006,-58.47705 -0.0436,-4.47015 1.17322,-6.38562 5.88202,-5.99359 4.30243,0.35822 8.65839,0.15344 12.98841,0.0723 2.70666,-0.0506 3.8955,1.01861 3.88751,3.8175 -0.0619,21.65833 0.55578,43.33911 -0.24304,64.96832 -0.65693,17.7884 -14.69373,30.5929 -32.44959,32.01429 -6.0263,0.48242 -11.95843,0.23712 -18.36072,-0.25568 z"
     id="path4" /><path
     fill="#000000"
     opacity="1"
     stroke="none"
     d="m 314.09952,720.98004 c -0.0194,-13.34991 -0.0194,-13.34942 13.01239,-13.33765 2.81463,0.003 5.62927,3.7e-4 8.13992,3.7e-4 1.63663,2.02918 1.05743,3.93701 1.0622,5.70313 0.0499,18.49951 0.055,36.9992 0.0365,55.49884 -0.004,4.36621 0.71186,8.60656 2.02448,12.74402 1.42395,4.48852 4.47919,7.61517 9.0574,8.44531 13.21662,2.3966 24.32126,0.2746 24.38105,-17.13074 0.0676,-19.66589 0.20065,-39.33301 0.0187,-58.99695 -0.0429,-4.63678 1.08542,-6.89831 6.08564,-6.29425 5.22564,0.63129 11.91751,-2.27521 15.37475,1.29828 3.21219,3.32019 0.95947,9.86841 0.99878,14.98437 0.12939,16.83204 0.0659,33.66572 0.0534,50.49872 -0.0132,17.7107 -11.84806,31.44739 -29.79654,33.71784 -12.50672,1.58215 -24.9983,1.41882 -36.17221,-5.86487 -8.93738,-5.82587 -13.3321,-14.44324 -13.6232,-24.7973 -0.5243,-18.65058 -0.46671,-37.31757 -0.6532,-56.46912 z"
     id="path5" /><path
     fill="#000000"
     opacity="1"
     stroke="none"
     d="m 452.5993,725.26031 c -5.4569,-2.54461 -10.65786,-2.74841 -15.77066,-0.35028 -6.71023,3.14759 -7.67733,10.68378 -2.0216,15.49567 4.56756,3.88605 10.38708,5.12158 15.83352,7.11591 4.99378,1.82849 10.17453,3.23126 14.99631,5.42858 14.28507,6.50977 17.23004,14.90998 17.37424,26.02369 0.16867,13.00415 -7.03311,22.90319 -19.2684,26.88354 -13.11231,4.26569 -26.51117,4.68781 -39.52506,-0.72772 -9.88254,-4.11243 -15.81757,-11.74817 -18.60541,-22.60535 6.45041,-3.04187 13.38968,-3.67175 20.2616,-5.78979 2.56601,7.4823 6.77988,13.02637 15.01828,14.50207 4.63379,0.82996 8.97412,0.36554 13.09546,-1.68762 6.73032,-3.35296 7.36542,-11.46118 1.25867,-15.83386 -4.52802,-3.24219 -9.87174,-4.68842 -15.05234,-6.49182 -8.62439,-3.00226 -17.50815,-5.49225 -24.27158,-12.23499 -13.48819,-13.44678 -10.06457,-35.86847 7.10941,-44.16095 14.87188,-7.18091 29.9678,-6.52264 44.6785,0.73914 6.65609,3.2857 10.31369,9.19616 12.29861,16.21655 0.77249,2.73212 0.0331,4.50464 -2.88913,5.19092 -4.68674,1.10058 -9.37552,2.20233 -14.02545,3.44562 -2.49637,0.66742 -3.77939,-0.22834 -4.33484,-2.61353 -0.82831,-3.55707 -2.68774,-6.41595 -6.16013,-8.54578 z"
     id="path6" /><path
     fill="#000000"
     opacity="1"
     stroke="none"
     d="m 889.22504,708.39429 c 14.33935,5.13122 24.11596,15.40924 25.1568,26.73596 -6.80848,1.59247 -13.70234,3.20495 -20.78156,4.86078 -0.70129,-1.41858 -1.34644,-2.55304 -1.84009,-3.74994 -3.03833,-7.36762 -8.69793,-11.28076 -16.46539,-11.8161 -8.04706,-0.55457 -14.79736,2.35901 -19.13837,9.37396 -5.58667,9.02789 -6.13946,19.14221 -5.41809,29.37805 0.22003,3.12207 0.76898,6.27496 1.61066,9.28992 3.46033,12.39545 11.59973,18.0216 24.39453,17.32214 6.88885,-0.37652 11.4718,-3.90625 14.45178,-9.8576 0.73395,-1.46576 1.26685,-3.03229 2.0221,-4.86823 7.18676,1.04969 13.98724,2.93976 21.28595,5.0716 -1.81934,10.17767 -7.19519,17.81079 -15.79102,22.52746 -16.20691,8.89258 -33.10986,8.57404 -49.22027,0.12549 -15.76081,-8.2652 -22.07233,-22.81476 -22.81659,-40.04303 -0.46979,-10.87567 0.38287,-21.49615 4.94384,-31.70587 8.02832,-17.97156 26.73273,-26.54468 45.45734,-24.69257 3.97034,0.39276 7.92499,0.77185 12.14838,2.04798 z"
     id="path7" /><path
     fill="#000000"
     opacity="1"
     stroke="none"
     d="m 797.75879,713.90832 c 1.02795,-5.10144 3.79474,-6.76342 8.60766,-6.35766 5.09211,0.42932 10.24848,0.0963 14.93482,0.0963 1.31165,1.66956 0.77179,2.7309 0.39374,3.83417 -10.46033,30.52686 -20.93366,61.04926 -31.31757,91.60211 -0.9834,2.89343 -2.36151,4.38422 -5.66016,4.28931 -7.15978,-0.20606 -14.32959,-0.10535 -21.49481,-0.0525 -2.43371,0.0179 -3.9812,-0.69196 -4.83398,-3.26203 -10.21637,-30.79046 -20.52979,-61.5487 -30.80725,-92.31897 -0.36231,-1.08465 -0.93103,-2.18151 0.0946,-3.98858 6.57685,0 13.53607,-0.14453 20.48493,0.0624 3.36181,0.1 3.30029,3.43261 3.99585,5.62603 6.4812,20.43817 12.82049,40.92133 19.2276,61.38312 0.93475,2.98523 2.00964,5.92651 4.01703,8.98694 7.42248,-23.1695 14.84497,-46.33893 22.35754,-69.90064 z"
     id="path8" /><path
     fill="#000000"
     opacity="1"
     stroke="none"
     d="m 109.54006,737.35449 c -0.55681,-9.94647 -0.8252,-19.41888 0.20271,-29.61297 6.41835,0 12.6817,-0.0999 18.93968,0.04 3.3892,0.0757 2.61914,2.91162 2.62669,4.89727 0.0621,16.33265 0.038,32.66559 0.0395,48.99848 6.7e-4,6.99981 0.30101,14.0169 -0.10089,20.99353 -0.28856,5.00915 1.64073,6.21911 6.30921,6.07635 9.99037,-0.30536 20.00184,0.0974 29.99385,-0.18005 4.49042,-0.1247 5.73031,1.52337 5.62707,5.81543 -0.36882,15.33124 1.76714,12.76385 -13.0439,12.906 -14.99815,0.14386 -30.00081,-0.10919 -44.99711,0.11048 -4.28569,0.0627 -5.72457,-1.05078 -5.6742,-5.57752 0.23729,-21.32995 0.0946,-42.66418 0.0773,-64.46704 z"
     id="path9" /><path
     fill="#000000"
     opacity="1"
     stroke="none"
     d="m 208.34796,762.00012 c -0.002,13.66474 -0.14474,26.83191 0.0752,39.99292 0.0705,4.22119 -1.44957,5.6225 -5.50095,5.37573 -4.15102,-0.25274 -8.33093,-0.15301 -12.49397,-0.0448 -2.92826,0.0761 -4.09461,-0.94996 -4.09603,-4.07483 -0.0134,-29.81537 -0.094,-59.63129 -0.34939,-89.44544 -0.0404,-4.716 1.39917,-6.61511 6.29687,-6.24414 5.1015,0.38648 10.25499,0.0862 16.06807,0.0862 0,18.30976 0,36.08203 2e-4,54.35431 z"
     id="path10" /><path
     fill="#000000"
     opacity="1"
     stroke="none"
     d="m 582.84546,751.94891 c 1.13885,-1.87799 2.80255,-1.62884 4.20911,-1.63794 9.32751,-0.0605 18.65625,0.0656 27.98352,-0.0101 3.00073,-0.0243 4.14056,1.15833 4.11023,4.14875 -0.17444,17.15484 1.47631,13.42419 -13.16785,13.80798 -6.32739,0.16583 -12.66541,-0.0955 -18.99475,0.0294 -3.24292,0.064 -4.49597,-1.25452 -4.35199,-4.44586 0.1726,-3.8252 0.0887,-7.66187 0.21173,-11.89228 z"
     id="path11" /></g>



<g
   id="g16"
   transform="translate(-156.41173,-116.21059)"><path
     fill="#000000"
     opacity="1"
     stroke="none"
     d="m 323.48303,442.50784 c -25.79522,-28.04315 -41.85147,-60.55279 -48.9108,-97.60806 -3.47705,-18.25156 -4.64675,-36.66238 -2.70065,-55.06949 3.73383,-35.31666 16.35895,-67.4238 37.36002,-96.04121 29.67306,-40.43442 69.87262,-64.75086 118.75818,-73.93099 52.96395,-9.94602 102.39981,0.45348 146.79495,31.13831 43.01587,29.73146 68.84601,71.23607 78.54022,122.4227 9.32562,49.23984 0.6911,95.56958 -25.21832,138.54446 -6.62122,10.98227 -14.53491,21.0473 -23.24201,30.53549 1.72425,1.87384 3.65857,1.04319 5.35669,1.10825 14.60083,0.55923 29.33582,-1.4566 43.78119,2.04227 31.06665,7.52481 52.16028,25.54483 59.79279,57.44839 0.99878,4.17481 1.63507,8.44827 1.58966,12.81934 -0.17664,16.99633 0.20367,33.98517 0.92938,50.96795 0.6474,15.14917 9.83087,27.48621 23.1272,30.90564 16.35553,4.20618 32.56512,-5.68811 36.09167,-22.21862 1.35132,-6.33417 2.10443,-12.78791 2.10919,-19.28876 0.019,-25.83014 -0.0234,-51.66034 0.0497,-77.49024 0.008,-2.99554 -0.37671,-5.43109 -3.09278,-7.31921 -2.51483,-1.74823 -2.99945,-4.57233 -2.97448,-7.57089 0.0815,-9.83145 -0.0863,-19.66602 0.0893,-29.495 0.0628,-3.51501 -0.80273,-5.29458 -4.69427,-5.08807 -5.83295,0.30957 -10.20392,-2.56067 -13.51599,-7.13724 -5.76001,-7.95917 -11.49634,-15.9364 -17.15125,-23.97037 -4.49945,-6.39233 -6.96716,-13.21487 -6.84717,-21.38635 0.38886,-26.491 0.14063,-52.99127 0.14948,-79.48798 0.003,-7.67254 1.45959,-9.91271 8.80994,-11.5245 3.78582,-0.83014 3.14056,-3.32742 3.14697,-5.67661 0.0502,-18.49755 0.0223,-36.99531 0.0316,-55.49299 0.004,-7.69103 1.30536,-8.99346 9.01648,-8.99588 24.49695,-0.008 48.9939,-0.004 73.49085,0.003 8.98254,0.003 10.6972,1.61275 10.7489,10.81696 0.0983,17.4972 0.13415,34.99598 -0.0107,52.49241 -0.0345,4.15207 0.40826,6.76853 5.51495,7.39099 4.60345,0.56116 6.94196,4.17377 6.93994,9.00553 -0.012,28.82971 0.0274,57.65951 -0.0289,86.4891 -0.0115,5.90488 -2.77698,10.93396 -6.00592,15.60941 -5.67694,8.22024 -11.5213,16.32773 -17.42608,24.38681 -3.39466,4.63315 -7.74787,7.85928 -13.86628,7.49954 -3.86108,-0.22699 -4.77581,1.68192 -4.71942,5.17206 0.15607,9.6629 0.0175,19.33023 0.0706,28.99539 0.0132,2.39801 0.009,5.05118 -1.76325,6.56061 -3.60223,3.06769 -3.31958,6.94101 -3.31665,10.94775 0.0186,25.33017 0.17078,50.66233 -0.10809,75.9896 -0.1225,11.12469 -1.09973,22.18554 -5.52466,32.72253 -9.08447,21.63294 -29.37634,32.99493 -49.55536,32.16419 -27.35113,-1.12616 -44.52966,-20.89606 -49.4223,-40.87568 -2.34918,-9.5932 -2.60339,-19.39911 -2.94763,-29.19848 -0.46124,-13.12836 0.6109,-26.25678 -0.83038,-39.40509 -2.49256,-22.73877 -21.69355,-40.42194 -44.6576,-44.10215 -4.29651,-0.68856 -8.57055,-1.00314 -12.90503,-0.99624 -17.99774,0.0288 -35.99554,0.028 -53.99316,-0.0206 -2.56293,-0.007 -4.81909,0.34631 -6.99512,1.97256 -9.10156,6.80219 -18.85852,12.53415 -29.32116,16.98786 -2.83625,1.20736 -4.03376,2.93799 -3.98072,6.07437 0.15509,9.1629 0.21265,18.33395 -0.0145,27.4938 -0.10089,4.07392 1.56811,5.11622 5.3352,5.07178 13.16309,-0.15515 26.33521,-0.30853 39.49286,0.004 18.58313,0.4408 33.99951,7.38904 44.44458,23.37701 5.20996,7.97486 7.78723,16.93995 7.97827,26.41096 0.25537,12.65997 0.10041,25.32904 0.0534,37.99395 -0.0363,9.77777 -6.91846,16.94153 -16.79309,17.51209 -2.49146,0.14404 -4.99799,0.0329 -7.49756,0.0327 -100.3208,-0.007 -200.64163,-0.0309 -300.96243,0.0119 -7.03705,0.003 -13.19809,-1.53027 -17.53306,-7.56585 -1.89727,-2.6416 -2.94561,-5.48706 -2.92767,-8.82508 0.077,-14.33111 -0.11301,-28.66479 0.0695,-42.99401 0.25128,-19.73414 16.80124,-39.07325 37.54227,-44.0542 5.66449,-1.36029 11.42733,-2.06623 17.29055,-2.02466 12.49787,0.0887 24.99772,-0.0502 37.49442,0.10028 3.43134,0.0413 4.75796,-1.06885 4.69546,-4.58667 -0.16574,-9.32923 -0.17532,-18.66571 0.009,-27.9942 0.0624,-3.16519 -1.14077,-4.8158 -3.94693,-6.05619 -23.31717,-10.30694 -43.45315,-25.1137 -61.29364,-43.73004 m -25.86882,-101.5427 c 7.62943,38.51331 25.25308,71.55759 55.47794,96.87012 38.08929,31.89881 81.93127,46.79993 131.88852,40.84064 30.63623,-3.65454 58.07641,-15.59348 82.38385,-34.33173 54.47204,-41.99179 77.98059,-111.50042 60.09015,-177.79727 -10.14881,-37.60844 -29.49713,-69.54942 -61.42487,-92.70634 -39.96899,-28.9892 -84.53805,-39.79996 -133.19101,-30.45607 -50.80105,9.75644 -90.3457,36.18003 -115.82745,81.96331 -14.07477,25.28821 -21.91834,52.35218 -21.99433,81.47693 -0.0291,11.1619 0.47507,22.27481 2.5972,34.14041 M 558.49994,606.6496 c 16.99029,1.2e-4 33.9815,-0.0924 50.97028,0.0697 3.92541,0.0374 5.40496,-1.29749 5.21484,-5.19794 -0.46131,-9.45996 0.40961,-18.92572 -0.90051,-28.41058 -2.09906,-15.19672 -11.84113,-24.09161 -27.35413,-24.08527 -58.29944,0.024 -116.59906,0.15778 -174.89825,0.0566 -22.64444,-0.0392 -45.28824,0.16596 -67.9383,-0.27002 -13.56677,-0.26117 -25.63785,6.401 -28.41647,22.57648 -1.62384,9.453 -0.51999,18.92938 -0.789,28.3902 -0.19486,6.85364 -0.0218,6.87005 6.74694,6.87024 78.78818,0.002 157.57636,5.5e-4 237.3646,5.5e-4 M 504.4155,500.28265 c -30.70249,5.78574 -61.27781,5.20792 -92.19232,-2.71176 0,14.83243 0.0181,28.79172 -0.0139,42.75083 -0.007,3.13171 1.98663,3.33545 4.3551,3.33422 31.81171,-0.0168 63.62348,-0.0423 95.43497,0.0417 3.43274,0.009 4.76056,-1.17377 4.69897,-4.64959 -0.15045,-8.49146 -0.0403,-16.98755 -0.037,-25.48176 0.002,-5.10608 3.6e-4,-10.21215 3.6e-4,-15.89331 -4.32892,0.94501 -7.8638,1.71668 -12.24618,2.60968 m 269.10025,-261.8974 c -3.16138,-9.7e-4 -6.32898,0.12247 -9.48236,-0.0368 -3.38141,-0.17071 -4.77094,1.11067 -4.73401,4.6228 0.13299,12.64407 0.16595,25.29204 -0.0173,37.93486 -0.0551,3.80325 1.38392,4.8342 4.98041,4.80231 15.80554,-0.14036 31.61432,-0.16703 47.41907,0.0158 4.0979,0.0474 5.07745,-1.61566 5.03021,-5.3475 -0.15582,-12.31067 -0.18438,-24.6268 0.0224,-36.93608 0.0678,-4.03867 -1.50702,-5.16316 -5.28686,-5.11604 -12.31079,0.15351 -24.62464,0.0597 -37.93158,0.0606 m 26.78314,121.45859 c -2.47937,1.47721 -4.41412,4.039 -7.57099,4.14038 -1.49932,-1.81769 -1.02569,-3.71582 -1.03808,-5.47619 -0.0551,-7.82355 0.11371,-15.65091 -0.0703,-23.47049 -0.112,-4.75977 -0.52301,-9.37494 7.2724,-8.54221 -3.30835,-6.07901 -6.4054,-10.95535 -10.78821,-15.69611 -3.97901,4.91269 -7.36548,9.24488 -10.11743,15.38007 9.96643,-0.8555 8.13549,5.66058 8.15356,10.98447 0.0344,10.15429 0.0669,20.30938 -0.0332,30.46283 -0.0215,2.17505 0.60852,4.69513 -1.8833,6.51312 -3.98426,-2.05316 -7.86554,-4.23273 -10.92743,-7.59543 -3.51312,-3.85837 -3.41028,-5.8446 0.33771,-9.56537 3.8045,-3.77704 4.02807,-8.24566 0.59655,-11.92718 -3.26226,-3.49991 -9.21704,-3.74448 -12.60821,-0.51773 -3.71033,3.53042 -3.79987,8.62112 -0.0958,12.4049 1.27057,1.29792 2.706,2.24674 2.85877,4.40287 0.41144,5.80477 4.02026,9.65393 8.44433,12.90326 3.34742,2.45861 6.95276,4.63452 9.99207,7.42727 3.95367,3.63294 3.66455,7.09693 -0.25922,10.74317 -4.16052,3.86621 -4.42852,9.91088 -0.60913,13.73693 3.64899,3.65537 10.45355,3.61368 13.99542,-0.0858 3.88233,-4.05515 3.73023,-9.99066 -0.79113,-13.65427 -6.20002,-5.02374 -5.54486,-18.14111 1.1311,-22.45358 7.47632,-4.8295 15.74768,-9.28079 16.63849,-19.77615 0.0131,-0.155 0.0903,-0.38813 0.20337,-0.43906 5.71747,-2.57642 2.95154,-7.69327 3.47876,-11.78824 0.2763,-2.14648 -0.76258,-3.52377 -3.12,-3.5303 -2.32995,-0.006 -4.66052,-0.0293 -6.98974,0.0124 -1.42762,0.0255 -2.87897,0.47772 -2.93622,2.08691 -0.12964,3.64401 -0.88141,7.60504 0.23785,10.88501 2.46552,7.2251 2.78467,7.47809 -3.50195,12.43457 z"
     id="path1" /><path
     fill="#000000"
     opacity="1"
     stroke="none"
     d="m 381.70911,229.7137 c 18.87957,-19.21521 41.40344,-30.81232 67.73175,-33.8313 59.71771,-6.84767 115.89825,30.63164 127.51635,91.32368 11.90473,62.18998 -26.37176,123.01496 -90.90707,135.83149 -62.3779,12.38809 -124.73733,-28.51755 -135.06668,-93.81125 -5.95154,-37.62052 3.7796,-71.24994 30.72565,-99.51262 m 73.09375,-10.36484 c -1.97007,0.27947 -3.94431,0.53252 -5.90961,0.84227 -48.52841,7.64887 -84.55026,54.2804 -74.16773,108.37296 9.11872,47.50793 55.7696,78.95254 102.04728,72.27227 47.93972,-6.92019 83.98983,-51.32864 78.04184,-100.87008 -3.10712,-25.87985 -14.75507,-46.68967 -35.29871,-62.4778 -18.79455,-14.44394 -40.293,-19.90006 -64.71307,-18.13962 z"
     id="path12" /><path
     fill="#000000"
     opacity="1"
     stroke="none"
     d="m 612.75525,295.95941 c 7.54114,6.8711 8.07007,16.91751 1.5285,22.91605 -5.96045,5.46566 -15.52752,4.45544 -20.69055,-2.18472 -3.97925,-5.11771 -3.96295,-12.4787 0.0388,-17.5347 4.58539,-5.7934 10.68835,-6.89655 19.12329,-3.19663 z"
     id="path13" /><path
     fill="#000000"
     opacity="1"
     stroke="none"
     d="m 799.29333,258.15378 c -0.007,12.53775 1.21741,10.93933 -10.58013,11.08325 -0.66224,0.008 -1.32477,-6.1e-4 -1.98713,-4e-4 -10.18383,0.003 -11.00793,-0.97476 -9.73144,-11.08261 0.26227,-2.07614 0.87079,-3.47352 3.25244,-3.45944 5.29828,0.0313 10.5968,0.0146 15.89526,0.0143 1.98322,-1.4e-4 3.11756,0.8875 3.151,3.44495 z"
     id="path14" /><path
     fill="#000000"
     opacity="1"
     stroke="none"
     d="m 515.32068,262.70483 c 12.82019,14.04624 19.35779,30.39664 18.84814,48.91883 -1.04736,38.06097 -29.54794,63.43979 -60.21341,67.91876 -36.1968,5.28693 -73.92273,-18.7872 -79.01605,-60.78449 -4.86661,-40.12783 23.39752,-72.18458 57.91483,-77.21041 24.28585,-3.53614 44.97793,3.52453 62.46649,21.15731 m -52.05261,12.60025 c -3.24332,-6.76596 -7.38587,-8.77984 -14.52478,-6.53872 -13.44532,4.22094 -22.05582,13.19775 -25.5456,26.91086 -1.46008,5.73739 1.34983,10.69473 6.88864,12.49139 4.33673,1.40671 9.92023,-1.17902 11.64737,-6.11801 2.67139,-7.63922 7.59781,-12.56769 15.13892,-15.43509 4.55853,-1.73325 7.0773,-5.40341 6.39545,-11.31043 z"
     id="path15" /></g>
</svg>
